<?xml version="1.0" encoding="UTF-8" standalone="no"?>
<!DOCTYPE svg PUBLIC "-//W3C//DTD SVG 1.1//EN"
 "http://www.w3.org/Graphics/SVG/1.1/DTD/svg11.dtd">
<!-- Generated by graphviz version 5.0.0 (0)
 -->
<!-- Pages: 1 -->
<svg width="1487pt" height="566pt"
 viewBox="0.00 0.00 1487.12 566.00" xmlns="http://www.w3.org/2000/svg" xmlns:xlink="http://www.w3.org/1999/xlink">
<g id="graph0" class="graph" transform="scale(1 1) rotate(0) translate(4 562)">
<polygon fill="white" stroke="transparent" points="-4,4 -4,-562 1483.12,-562 1483.12,4 -4,4"/>
<!-- down -->
<g id="node1" class="node">
<title>down</title>
<ellipse fill="none" stroke="black" cx="748.34" cy="-540" rx="113.18" ry="18"/>
<text text-anchor="middle" x="748.34" y="-536.3" font-family="Times,serif" font-size="14.00">o/cli/bash/downloaded</text>
</g>
<!-- patch -->
<g id="node2" class="node">
<title>patch</title>
<ellipse fill="none" stroke="black" cx="748.34" cy="-453" rx="94.78" ry="18"/>
<text text-anchor="middle" x="748.34" y="-449.3" font-family="Times,serif" font-size="14.00">o/cli/bash/patched</text>
</g>
<!-- down&#45;&gt;patch -->
<g id="edge1" class="edge">
<title>down&#45;&gt;patch</title>
<path fill="none" stroke="black" d="M748.34,-511.73C748.34,-498.42 748.34,-482.81 748.34,-471.18"/>
<polygon fill="black" stroke="black" points="744.84,-511.8 748.34,-521.8 751.84,-511.8 744.84,-511.8"/>
<text text-anchor="middle" x="789.34" y="-492.8" font-family="Times,serif" font-size="14.00">depends on</text>
</g>
<!-- dep1 -->
<g id="node3" class="node">
<title>dep1</title>
<ellipse fill="none" stroke="black" cx="955.34" cy="-366" rx="115.88" ry="18"/>
<text text-anchor="middle" x="955.34" y="-362.3" font-family="Times,serif" font-size="14.00">o/cli/bash/deps.x86_64</text>
</g>
<!-- patch&#45;&gt;dep1 -->
<g id="edge2" class="edge">
<title>patch&#45;&gt;dep1</title>
<path fill="none" stroke="black" d="M795.74,-432.53C832.21,-417.56 881.99,-397.12 916.2,-383.07"/>
<polygon fill="black" stroke="black" points="794.22,-429.37 786.3,-436.41 796.88,-435.85 794.22,-429.37"/>
<text text-anchor="middle" x="905.34" y="-405.8" font-family="Times,serif" font-size="14.00">depends on</text>
</g>
<!-- dep2 -->
<g id="node4" class="node">
<title>dep2</title>
<ellipse fill="none" stroke="black" cx="489.34" cy="-366" rx="120.48" ry="18"/>
<text text-anchor="middle" x="489.34" y="-362.3" font-family="Times,serif" font-size="14.00">o/cli/bash/deps.aarch64</text>
</g>
<!-- patch&#45;&gt;dep2 -->
<g id="edge9" class="edge">
<title>patch&#45;&gt;dep2</title>
<path fill="none" stroke="black" d="M693.32,-433.95C646.88,-418.71 581.08,-397.11 536.89,-382.61"/>
<polygon fill="black" stroke="black" points="692.33,-437.3 702.93,-437.1 694.52,-430.65 692.33,-437.3"/>
<text text-anchor="middle" x="676.34" y="-405.8" font-family="Times,serif" font-size="14.00">depends on</text>
</g>
<!-- conf1 -->
<g id="node5" class="node">
<title>conf1</title>
<ellipse fill="none" stroke="black" cx="912.34" cy="-279" rx="142.97" ry="18"/>
<text text-anchor="middle" x="912.34" y="-275.3" font-family="Times,serif" font-size="14.00">o/cli/bash/configured.x86_64</text>
</g>
<!-- dep1&#45;&gt;conf1 -->
<g id="edge5" class="edge">
<title>dep1&#45;&gt;conf1</title>
<path fill="none" stroke="black" d="M941.94,-338.52C935.12,-325.04 927.03,-309.04 921.02,-297.18"/>
<polygon fill="black" stroke="black" points="939,-340.46 946.63,-347.8 945.24,-337.3 939,-340.46"/>
<text text-anchor="middle" x="978.34" y="-318.8" font-family="Times,serif" font-size="14.00">depends on</text>
</g>
<!-- conf2 -->
<g id="node6" class="node">
<title>conf2</title>
<ellipse fill="none" stroke="black" cx="575.34" cy="-279" rx="147.57" ry="18"/>
<text text-anchor="middle" x="575.34" y="-275.3" font-family="Times,serif" font-size="14.00">o/cli/bash/configured.aarch64</text>
</g>
<!-- dep2&#45;&gt;conf2 -->
<g id="edge12" class="edge">
<title>dep2&#45;&gt;conf2</title>
<path fill="none" stroke="black" d="M514.21,-340.42C528.34,-326.45 545.66,-309.33 558.25,-296.89"/>
<polygon fill="black" stroke="black" points="511.39,-338.28 506.74,-347.8 516.31,-343.26 511.39,-338.28"/>
<text text-anchor="middle" x="579.34" y="-318.8" font-family="Times,serif" font-size="14.00">depends on</text>
</g>
<!-- build1 -->
<g id="node7" class="node">
<title>build1</title>
<ellipse fill="none" stroke="black" cx="890.34" cy="-192" rx="115.08" ry="18"/>
<text text-anchor="middle" x="890.34" y="-188.3" font-family="Times,serif" font-size="14.00">o/cli/bash/built.x86_64</text>
</g>
<!-- conf1&#45;&gt;build1 -->
<g id="edge6" class="edge">
<title>conf1&#45;&gt;build1</title>
<path fill="none" stroke="black" d="M905.28,-250.73C901.83,-237.42 897.79,-221.81 894.78,-210.18"/>
<polygon fill="black" stroke="black" points="901.99,-251.99 907.88,-260.8 908.77,-250.24 901.99,-251.99"/>
<text text-anchor="middle" x="944.34" y="-231.8" font-family="Times,serif" font-size="14.00">depends on</text>
</g>
<!-- build2 -->
<g id="node8" class="node">
<title>build2</title>
<ellipse fill="none" stroke="black" cx="589.34" cy="-192" rx="119.68" ry="18"/>
<text text-anchor="middle" x="589.34" y="-188.3" font-family="Times,serif" font-size="14.00">o/cli/bash/built.aarch64</text>
</g>
<!-- conf2&#45;&gt;build2 -->
<g id="edge13" class="edge">
<title>conf2&#45;&gt;build2</title>
<path fill="none" stroke="black" d="M579.83,-250.73C582.02,-237.42 584.59,-221.81 586.51,-210.18"/>
<polygon fill="black" stroke="black" points="576.34,-250.36 578.17,-260.8 583.25,-251.5 576.34,-250.36"/>
<text text-anchor="middle" x="624.34" y="-231.8" font-family="Times,serif" font-size="14.00">depends on</text>
</g>
<!-- inst1 -->
<g id="node9" class="node">
<title>inst1</title>
<ellipse fill="none" stroke="black" cx="883.34" cy="-105" rx="133.78" ry="18"/>
<text text-anchor="middle" x="883.34" y="-101.3" font-family="Times,serif" font-size="14.00">o/cli/bash/installed.x86_64</text>
</g>
<!-- build1&#45;&gt;inst1 -->
<g id="edge7" class="edge">
<title>build1&#45;&gt;inst1</title>
<path fill="none" stroke="black" d="M888.09,-163.73C886.99,-150.42 885.71,-134.81 884.75,-123.18"/>
<polygon fill="black" stroke="black" points="884.61,-164.12 888.92,-173.8 891.59,-163.55 884.61,-164.12"/>
<text text-anchor="middle" x="928.34" y="-144.8" font-family="Times,serif" font-size="14.00">depends on</text>
</g>
<!-- inst2 -->
<g id="node10" class="node">
<title>inst2</title>
<ellipse fill="none" stroke="black" cx="592.34" cy="-105" rx="137.58" ry="18"/>
<text text-anchor="middle" x="592.34" y="-101.3" font-family="Times,serif" font-size="14.00">o/cli/bash/installed.aarch64</text>
</g>
<!-- build2&#45;&gt;inst2 -->
<g id="edge14" class="edge">
<title>build2&#45;&gt;inst2</title>
<path fill="none" stroke="black" d="M590.3,-163.73C590.77,-150.42 591.32,-134.81 591.73,-123.18"/>
<polygon fill="black" stroke="black" points="586.8,-163.68 589.94,-173.8 593.79,-163.93 586.8,-163.68"/>
<text text-anchor="middle" x="632.34" y="-144.8" font-family="Times,serif" font-size="14.00">depends on</text>
</g>
<!-- fat -->
<g id="node15" class="node">
<title>fat</title>
<ellipse fill="none" stroke="black" cx="736.34" cy="-18" rx="94.78" ry="18"/>
<text text-anchor="middle" x="736.34" y="-14.3" font-family="Times,serif" font-size="14.00">o/cli/bash/built.fat</text>
</g>
<!-- inst1&#45;&gt;fat -->
<g id="edge8" class="edge">
<title>inst1&#45;&gt;fat</title>
<path fill="none" stroke="black" d="M845.69,-82.23C820.36,-67.59 787.51,-48.59 764.46,-35.26"/>
<polygon fill="black" stroke="black" points="844.24,-85.43 854.64,-87.41 847.74,-79.37 844.24,-85.43"/>
<text text-anchor="middle" x="860.34" y="-57.8" font-family="Times,serif" font-size="14.00">depends on</text>
</g>
<!-- inst2&#45;&gt;fat -->
<g id="edge15" class="edge">
<title>inst2&#45;&gt;fat</title>
<path fill="none" stroke="black" d="M629.51,-82.06C654.15,-67.51 685.96,-48.74 708.44,-35.47"/>
<polygon fill="black" stroke="black" points="627.62,-79.11 620.79,-87.21 631.18,-85.14 627.62,-79.11"/>
<text text-anchor="middle" x="714.34" y="-57.8" font-family="Times,serif" font-size="14.00">depends on</text>
</g>
<!-- inst11 -->
<g id="node11" class="node">
<title>inst11</title>
<ellipse fill="none" stroke="black" cx="1010.34" cy="-453" rx="148.67" ry="18"/>
<text text-anchor="middle" x="1010.34" y="-449.3" font-family="Times,serif" font-size="14.00">o/lib/ncurses/installed.x86_64</text>
</g>
<!-- inst11&#45;&gt;dep1 -->
<g id="edge3" class="edge">
<title>inst11&#45;&gt;dep1</title>
<path fill="none" stroke="black" d="M999.86,-425.23C996.35,-417.47 992.09,-409.17 987.34,-402 983.15,-395.69 977.84,-389.39 972.75,-383.92"/>
<polygon fill="black" stroke="black" points="996.74,-426.84 1003.91,-434.64 1003.17,-424.07 996.74,-426.84"/>
<text text-anchor="middle" x="1037.34" y="-405.8" font-family="Times,serif" font-size="14.00">depends on</text>
</g>
<!-- inst12 -->
<g id="node12" class="node">
<title>inst12</title>
<ellipse fill="none" stroke="black" cx="1328.34" cy="-453" rx="150.57" ry="18"/>
<text text-anchor="middle" x="1328.34" y="-449.3" font-family="Times,serif" font-size="14.00">o/lib/readline/installed.x86_64</text>
</g>
<!-- inst12&#45;&gt;dep1 -->
<g id="edge4" class="edge">
<title>inst12&#45;&gt;dep1</title>
<path fill="none" stroke="black" d="M1251.68,-434.53C1182.53,-418.77 1082.08,-395.88 1017.72,-381.22"/>
<polygon fill="black" stroke="black" points="1251.12,-437.99 1261.65,-436.8 1252.68,-431.17 1251.12,-437.99"/>
<text text-anchor="middle" x="1204.34" y="-405.8" font-family="Times,serif" font-size="14.00">depends on</text>
</g>
<!-- inst21 -->
<g id="node13" class="node">
<title>inst21</title>
<ellipse fill="none" stroke="black" cx="482.34" cy="-453" rx="153.27" ry="18"/>
<text text-anchor="middle" x="482.34" y="-449.3" font-family="Times,serif" font-size="14.00">o/lib/ncurses/installed.aarch64</text>
</g>
<!-- inst21&#45;&gt;dep2 -->
<g id="edge10" class="edge">
<title>inst21&#45;&gt;dep2</title>
<path fill="none" stroke="black" d="M484.58,-424.73C485.68,-411.42 486.96,-395.81 487.92,-384.18"/>
<polygon fill="black" stroke="black" points="481.09,-424.55 483.75,-434.8 488.06,-425.12 481.09,-424.55"/>
<text text-anchor="middle" x="527.34" y="-405.8" font-family="Times,serif" font-size="14.00">depends on</text>
</g>
<!-- inst22 -->
<g id="node14" class="node">
<title>inst22</title>
<ellipse fill="none" stroke="black" cx="155.34" cy="-453" rx="155.17" ry="18"/>
<text text-anchor="middle" x="155.34" y="-449.3" font-family="Times,serif" font-size="14.00">o/lib/readline/installed.aarch64</text>
</g>
<!-- inst22&#45;&gt;dep2 -->
<g id="edge11" class="edge">
<title>inst22&#45;&gt;dep2</title>
<path fill="none" stroke="black" d="M226.54,-433.88C287.56,-418.35 374.37,-396.26 431.26,-381.78"/>
<polygon fill="black" stroke="black" points="225.42,-430.55 216.6,-436.41 227.15,-437.34 225.42,-430.55"/>
<text text-anchor="middle" x="383.34" y="-405.8" font-family="Times,serif" font-size="14.00">depends on</text>
</g>
</g>
</svg>
