<?xml version="1.0" encoding="UTF-8" standalone="no"?>
<!DOCTYPE svg PUBLIC "-//W3C//DTD SVG 1.1//EN"
 "http://www.w3.org/Graphics/SVG/1.1/DTD/svg11.dtd">
<!-- Generated by graphviz version 8.1.0 (20230707.0739)
 -->
<!-- Pages: 1 -->
<svg width="1592pt" height="669pt"
 viewBox="0.00 0.00 1592.17 668.75" xmlns="http://www.w3.org/2000/svg" xmlns:xlink="http://www.w3.org/1999/xlink">
<g id="graph0" class="graph" transform="scale(1 1) rotate(0) translate(4 664.75)">
<polygon fill="white" stroke="none" points="-4,4 -4,-664.75 1588.17,-664.75 1588.17,4 -4,4"/>
<!-- down -->
<g id="node1" class="node">
<title>down</title>
<ellipse fill="none" stroke="black" cx="801.95" cy="-642.75" rx="121.71" ry="18"/>
<text text-anchor="middle" x="801.95" y="-638.08" font-family="Times,serif" font-size="14.00">o/cli/bash/downloaded</text>
</g>
<!-- check -->
<g id="node2" class="node">
<title>check</title>
<ellipse fill="none" stroke="black" cx="801.95" cy="-553.5" rx="102.24" ry="18"/>
<text text-anchor="middle" x="801.95" y="-548.83" font-family="Times,serif" font-size="14.00">o/cli/bash/checked</text>
</g>
<!-- down&#45;&gt;check -->
<g id="edge1" class="edge">
<title>down&#45;&gt;check</title>
<path fill="none" stroke="black" d="M801.95,-613.62C801.95,-599.82 801.95,-583.64 801.95,-571.7"/>
<polygon fill="black" stroke="black" points="798.45,-613.51 801.95,-623.51 805.45,-613.51 798.45,-613.51"/>
<text text-anchor="middle" x="842.83" y="-593.45" font-family="Times,serif" font-size="14.00">depends on</text>
</g>
<!-- patch -->
<g id="node3" class="node">
<title>patch</title>
<ellipse fill="none" stroke="black" cx="801.95" cy="-464.25" rx="101.71" ry="18"/>
<text text-anchor="middle" x="801.95" y="-459.57" font-family="Times,serif" font-size="14.00">o/cli/bash/patched</text>
</g>
<!-- check&#45;&gt;patch -->
<g id="edge2" class="edge">
<title>check&#45;&gt;patch</title>
<path fill="none" stroke="black" d="M801.95,-524.37C801.95,-510.57 801.95,-494.39 801.95,-482.45"/>
<polygon fill="black" stroke="black" points="798.45,-524.26 801.95,-534.26 805.45,-524.26 798.45,-524.26"/>
<text text-anchor="middle" x="842.83" y="-504.2" font-family="Times,serif" font-size="14.00">depends on</text>
</g>
<!-- dep1 -->
<g id="node4" class="node">
<title>dep1</title>
<ellipse fill="none" stroke="black" cx="1026.95" cy="-375" rx="124.34" ry="18"/>
<text text-anchor="middle" x="1026.95" y="-370.32" font-family="Times,serif" font-size="14.00">o/cli/bash/deps.x86_64</text>
</g>
<!-- patch&#45;&gt;dep1 -->
<g id="edge3" class="edge">
<title>patch&#45;&gt;dep1</title>
<path fill="none" stroke="black" d="M852.99,-443.46C892.77,-428.03 947.35,-406.87 984.7,-392.38"/>
<polygon fill="black" stroke="black" points="852.02,-440.47 843.96,-447.35 854.55,-447 852.02,-440.47"/>
<text text-anchor="middle" x="975.83" y="-414.95" font-family="Times,serif" font-size="14.00">depends on</text>
</g>
<!-- dep2 -->
<g id="node5" class="node">
<title>dep2</title>
<ellipse fill="none" stroke="black" cx="524.95" cy="-375" rx="129.07" ry="18"/>
<text text-anchor="middle" x="524.95" y="-370.32" font-family="Times,serif" font-size="14.00">o/cli/bash/deps.aarch64</text>
</g>
<!-- patch&#45;&gt;dep2 -->
<g id="edge10" class="edge">
<title>patch&#45;&gt;dep2</title>
<path fill="none" stroke="black" d="M743.41,-444.81C693.6,-429.12 622.81,-406.82 575.46,-391.91"/>
<polygon fill="black" stroke="black" points="742.11,-448.39 752.7,-448.05 744.22,-441.71 742.11,-448.39"/>
<text text-anchor="middle" x="729.83" y="-414.95" font-family="Times,serif" font-size="14.00">depends on</text>
</g>
<!-- conf1 -->
<g id="node6" class="node">
<title>conf1</title>
<ellipse fill="none" stroke="black" cx="981.95" cy="-285.75" rx="153.8" ry="18"/>
<text text-anchor="middle" x="981.95" y="-281.07" font-family="Times,serif" font-size="14.00">o/cli/bash/configured.x86_64</text>
</g>
<!-- dep1&#45;&gt;conf1 -->
<g id="edge6" class="edge">
<title>dep1&#45;&gt;conf1</title>
<path fill="none" stroke="black" d="M1013.08,-347.11C1005.83,-333.05 997.17,-316.25 990.82,-303.95"/>
<polygon fill="black" stroke="black" points="1010.37,-348.48 1018.06,-355.76 1016.59,-345.27 1010.37,-348.48"/>
<text text-anchor="middle" x="1049.83" y="-325.7" font-family="Times,serif" font-size="14.00">depends on</text>
</g>
<!-- conf2 -->
<g id="node7" class="node">
<title>conf2</title>
<ellipse fill="none" stroke="black" cx="619.95" cy="-285.75" rx="158.53" ry="18"/>
<text text-anchor="middle" x="619.95" y="-281.07" font-family="Times,serif" font-size="14.00">o/cli/bash/configured.aarch64</text>
</g>
<!-- dep2&#45;&gt;conf2 -->
<g id="edge13" class="edge">
<title>dep2&#45;&gt;conf2</title>
<path fill="none" stroke="black" d="M551.59,-349.54C567.39,-335.02 587.05,-316.97 601.22,-303.95"/>
<polygon fill="black" stroke="black" points="549.72,-346.42 544.72,-355.76 554.45,-351.58 549.72,-346.42"/>
<text text-anchor="middle" x="622.83" y="-325.7" font-family="Times,serif" font-size="14.00">depends on</text>
</g>
<!-- build1 -->
<g id="node8" class="node">
<title>build1</title>
<ellipse fill="none" stroke="black" cx="956.95" cy="-196.5" rx="123.81" ry="18"/>
<text text-anchor="middle" x="956.95" y="-191.82" font-family="Times,serif" font-size="14.00">o/cli/bash/built.x86_64</text>
</g>
<!-- conf1&#45;&gt;build1 -->
<g id="edge7" class="edge">
<title>conf1&#45;&gt;build1</title>
<path fill="none" stroke="black" d="M974.01,-257.04C970.03,-243.15 965.34,-226.76 961.88,-214.7"/>
<polygon fill="black" stroke="black" points="970.89,-257.86 977.01,-266.51 977.62,-255.93 970.89,-257.86"/>
<text text-anchor="middle" x="1012.83" y="-236.45" font-family="Times,serif" font-size="14.00">depends on</text>
</g>
<!-- build2 -->
<g id="node9" class="node">
<title>build2</title>
<ellipse fill="none" stroke="black" cx="634.95" cy="-196.5" rx="128.55" ry="18"/>
<text text-anchor="middle" x="634.95" y="-191.82" font-family="Times,serif" font-size="14.00">o/cli/bash/built.aarch64</text>
</g>
<!-- conf2&#45;&gt;build2 -->
<g id="edge14" class="edge">
<title>conf2&#45;&gt;build2</title>
<path fill="none" stroke="black" d="M624.72,-257.04C627.1,-243.15 629.92,-226.76 631.99,-214.7"/>
<polygon fill="black" stroke="black" points="621.16,-256.06 622.92,-266.51 628.06,-257.25 621.16,-256.06"/>
<text text-anchor="middle" x="669.83" y="-236.45" font-family="Times,serif" font-size="14.00">depends on</text>
</g>
<!-- inst1 -->
<g id="node10" class="node">
<title>inst1</title>
<ellipse fill="none" stroke="black" cx="948.95" cy="-107.25" rx="143.8" ry="18"/>
<text text-anchor="middle" x="948.95" y="-102.58" font-family="Times,serif" font-size="14.00">o/cli/bash/installed.x86_64</text>
</g>
<!-- build1&#45;&gt;inst1 -->
<g id="edge8" class="edge">
<title>build1&#45;&gt;inst1</title>
<path fill="none" stroke="black" d="M954.37,-167.37C953.11,-153.57 951.62,-137.39 950.53,-125.45"/>
<polygon fill="black" stroke="black" points="950.97,-167.62 955.37,-177.26 957.94,-166.98 950.97,-167.62"/>
<text text-anchor="middle" x="994.83" y="-147.2" font-family="Times,serif" font-size="14.00">depends on</text>
</g>
<!-- inst2 -->
<g id="node11" class="node">
<title>inst2</title>
<ellipse fill="none" stroke="black" cx="637.95" cy="-107.25" rx="148.54" ry="18"/>
<text text-anchor="middle" x="637.95" y="-102.58" font-family="Times,serif" font-size="14.00">o/cli/bash/installed.aarch64</text>
</g>
<!-- build2&#45;&gt;inst2 -->
<g id="edge15" class="edge">
<title>build2&#45;&gt;inst2</title>
<path fill="none" stroke="black" d="M635.92,-167.37C636.39,-153.57 636.95,-137.39 637.36,-125.45"/>
<polygon fill="black" stroke="black" points="632.39,-167.15 635.54,-177.26 639.39,-167.39 632.39,-167.15"/>
<text text-anchor="middle" x="677.83" y="-147.2" font-family="Times,serif" font-size="14.00">depends on</text>
</g>
<!-- fat -->
<g id="node16" class="node">
<title>fat</title>
<ellipse fill="none" stroke="black" cx="791.95" cy="-18" rx="101.71" ry="18"/>
<text text-anchor="middle" x="791.95" y="-13.32" font-family="Times,serif" font-size="14.00">o/cli/bash/built.fat</text>
</g>
<!-- inst1&#45;&gt;fat -->
<g id="edge9" class="edge">
<title>inst1&#45;&gt;fat</title>
<path fill="none" stroke="black" d="M908.71,-83.89C881.57,-68.8 846.35,-49.23 821.72,-35.54"/>
<polygon fill="black" stroke="black" points="906.87,-87.42 917.31,-89.22 910.27,-81.3 906.87,-87.42"/>
<text text-anchor="middle" x="925.83" y="-57.95" font-family="Times,serif" font-size="14.00">depends on</text>
</g>
<!-- inst2&#45;&gt;fat -->
<g id="edge16" class="edge">
<title>inst2&#45;&gt;fat</title>
<path fill="none" stroke="black" d="M677.4,-83.9C703.93,-68.87 738.34,-49.38 762.49,-35.69"/>
<polygon fill="black" stroke="black" points="675.99,-81.25 669.01,-89.22 679.44,-87.34 675.99,-81.25"/>
<text text-anchor="middle" x="769.83" y="-57.95" font-family="Times,serif" font-size="14.00">depends on</text>
</g>
<!-- inst11 -->
<g id="node12" class="node">
<title>inst11</title>
<ellipse fill="none" stroke="black" cx="1081.95" cy="-464.25" rx="160.11" ry="18"/>
<text text-anchor="middle" x="1081.95" y="-459.57" font-family="Times,serif" font-size="14.00">o/lib/ncurses/installed.x86_64</text>
</g>
<!-- inst11&#45;&gt;dep1 -->
<g id="edge4" class="edge">
<title>inst11&#45;&gt;dep1</title>
<path fill="none" stroke="black" d="M1071.95,-436.02C1068.38,-427.69 1063.98,-418.71 1058.95,-411 1054.91,-404.79 1049.75,-398.62 1044.76,-393.23"/>
<polygon fill="black" stroke="black" points="1069.02,-437.11 1076.02,-445.06 1075.51,-434.48 1069.02,-437.11"/>
<text text-anchor="middle" x="1109.83" y="-414.95" font-family="Times,serif" font-size="14.00">depends on</text>
</g>
<!-- inst12 -->
<g id="node13" class="node">
<title>inst12</title>
<ellipse fill="none" stroke="black" cx="1421.95" cy="-464.25" rx="162.22" ry="18"/>
<text text-anchor="middle" x="1421.95" y="-459.57" font-family="Times,serif" font-size="14.00">o/lib/readline/installed.x86_64</text>
</g>
<!-- inst12&#45;&gt;dep1 -->
<g id="edge5" class="edge">
<title>inst12&#45;&gt;dep1</title>
<path fill="none" stroke="black" d="M1340.8,-445.32C1267.68,-429.17 1161.51,-405.72 1093.34,-390.66"/>
<polygon fill="black" stroke="black" points="1339.81,-448.91 1350.33,-447.65 1341.32,-442.08 1339.81,-448.91"/>
<text text-anchor="middle" x="1299.83" y="-414.95" font-family="Times,serif" font-size="14.00">depends on</text>
</g>
<!-- inst21 -->
<g id="node14" class="node">
<title>inst21</title>
<ellipse fill="none" stroke="black" cx="516.95" cy="-464.25" rx="164.85" ry="18"/>
<text text-anchor="middle" x="516.95" y="-459.57" font-family="Times,serif" font-size="14.00">o/lib/ncurses/installed.aarch64</text>
</g>
<!-- inst21&#45;&gt;dep2 -->
<g id="edge11" class="edge">
<title>inst21&#45;&gt;dep2</title>
<path fill="none" stroke="black" d="M519.53,-435.12C520.8,-421.32 522.28,-405.14 523.37,-393.2"/>
<polygon fill="black" stroke="black" points="515.96,-434.73 518.53,-445.01 522.93,-435.37 515.96,-434.73"/>
<text text-anchor="middle" x="562.83" y="-414.95" font-family="Times,serif" font-size="14.00">depends on</text>
</g>
<!-- inst22 -->
<g id="node15" class="node">
<title>inst22</title>
<ellipse fill="none" stroke="black" cx="166.95" cy="-464.25" rx="166.95" ry="18"/>
<text text-anchor="middle" x="166.95" y="-459.57" font-family="Times,serif" font-size="14.00">o/lib/readline/installed.aarch64</text>
</g>
<!-- inst22&#45;&gt;dep2 -->
<g id="edge12" class="edge">
<title>inst22&#45;&gt;dep2</title>
<path fill="none" stroke="black" d="M243.27,-444.65C308.68,-428.71 401.72,-406.03 462.7,-391.17"/>
<polygon fill="black" stroke="black" points="242.5,-441.48 233.61,-447.25 244.16,-448.28 242.5,-441.48"/>
<text text-anchor="middle" x="419.83" y="-414.95" font-family="Times,serif" font-size="14.00">depends on</text>
</g>
</g>
</svg>
